<svg xmlns="http://www.w3.org/2000/svg" fill-rule="evenodd" stroke-miterlimit="1.4" viewBox="0 0 1154 394" clip-rule="evenodd" stroke-linejoin="round"><path fill="#e30111" fill-rule="nonzero" d="M613.8 324.5c38.6 0 61.2-25.5 61.2-62.7 0-37.3-23-62.8-61.2-62.8-38 0-61.2 25.5-61.2 63s23 62.7 61.2 62.7v-.2zM482 0h76.6v164.3h1c17.4-24 47-32.6 78.7-32.6 70.4 0 113.3 63.3 113.3 132 0 75.4-48.8 128-122 128-30 0-58-14.4-76-38.4h-1V386H482V0zm-89.3 262c0-28.7-19-46.2-47-46.2s-47.2 17-47.2 46.2c0 29 19 46.2 47 46.2 28.3 0 47.2-17 47.2-46.2zM248 262c0-57.4 38.5-103.3 97.6-103.3 59 0 97.7 46.2 97.7 103.3 0 57-38.6 103.3-97.7 103.3-59 0-97.6-45.6-97.6-103.3zm648.7-20c0 17.5 1.6 56.5 27 56.5 13.6 0 20-14.5 20-27 0-22.7-11.7-43.7-34.8-43.7h-12.3v14zm58.2-14v1c19.8 12.5 27.8 35.5 27.8 59 0 34.6-20 66-57.4 66-64.4 0-65.4-78-65.4-125.8-20.4 0-33.3 16.8-33.3 36.7.3 18 8.5 35 22.5 46.5L818 342.3c-20.2-22.6-31-52-30.4-82 0-67 34-84.8 96-84.8h94.6V228H955z"/><path fill-rule="nonzero" d="M226.3 280c2.4 7.4 5 16.5 7.8 27.3 3 11.3 5.5 20.2 7.8 26.8 2.3 6.8 5.4 12.7 9.4 18H181L160 289.6c-5-14-11.7-24.5-20-31.7-8.5-7.4-19.3-11-32.4-11H66.3v105H.3V46.5h117.4c25.2 0 47 3.7 65.3 11 18.4 7.5 32.5 18.5 42.4 33.2 10 14.7 14.8 32.6 14.8 54 0 13-2.5 25.2-7.6 36.3-5 11-12 20.5-21 28.2-9 7.7-19.3 13.3-31 17 17 8.4 29 19 36.2 32 4 7.3 7 14.6 9.5 22zM160 181c9.4-7.6 14.2-19.7 14.2-36.4 0-15-4.8-26-14.3-33-9.7-6.8-23.7-10.3-42.3-10.3H66.3V192h51.4c18.7 0 32.8-3.6 42.3-11zM1102.8 227.7v71.7c0 11.4 2.2 20 6.5 26.3 4.3 6.2 10.6 9.2 18.7 9.2 9.6 0 17.5-1.3 23.5-3.7V387c-4 2-9.5 3.6-16 4.7-6.7 1.2-14 1.7-21.7 1.7-15 0-28.4-3-40-9.2-11.5-6.2-20.6-15.2-27.2-27-6.5-12-9.8-26-9.8-42.6v-87h-40.6v-53h40.6V95h66v79.3h50.8v53.2h-50.8z"/></svg>