<svg xmlns="http://www.w3.org/2000/svg" width="1154" height="394" viewBox="0 0 1154 394">
  <g fill="none" fill-rule="evenodd" transform="translate(-20 -125)">
    <path fill="#E30111" fill-rule="nonzero" d="M365.8375,324.494706 C404.379167,324.494706 427.041667,298.988235 427.041667,261.768824 C427.041667,224.549412 403.916667,199.042941 365.8375,199.042941 C327.758333,199.042941 304.55625,224.472353 304.55625,262 C304.55625,299.527647 327.68125,324.725882 365.8375,324.725882 L365.8375,324.494706 Z M234.102083,0 L310.645833,0 L310.645833,164.289412 L311.647917,164.289412 C328.991667,140.324118 358.66875,131.693529 390.272917,131.693529 C460.727083,131.693529 503.585417,194.958824 503.585417,263.849412 C503.585417,339.058824 454.791667,391.844118 381.639583,391.844118 C351.65588,391.566747 323.519187,377.317635 305.558333,353.314706 L304.55625,353.314706 L304.55625,386.064706 L234.102083,386.064706 L234.102083,0 Z M144.685417,262 C144.685417,233.257059 125.56875,215.764706 97.5875,215.764706 C69.60625,215.764706 50.4895833,232.948824 50.4895833,262 C50.4895833,291.051176 69.375,308.235294 97.5875,308.235294 C125.8,308.235294 144.685417,291.051176 144.685417,262 L144.685417,262 Z M0,262 C0,204.591176 38.5416667,158.664118 97.5875,158.664118 C156.633333,158.664118 195.252083,204.899412 195.252083,262 C195.252083,319.100588 156.710417,365.335882 97.5875,365.335882 C38.4645833,365.335882 0,319.717059 0,262 L0,262 Z M648.733333,241.887647 C648.733333,259.457059 650.275,298.525882 675.558333,298.525882 C689.279167,298.525882 695.83125,283.961765 695.83125,271.401176 C695.83125,248.822941 683.960417,227.785882 660.9125,227.785882 L648.733333,227.785882 L648.733333,241.887647 Z M706.854167,228.094118 L706.854167,228.864706 C726.81875,241.502353 734.835417,264.465882 734.835417,287.891765 C734.835417,322.645294 714.947917,354.085294 677.408333,354.085294 C613.04375,354.085294 611.964583,276.024706 611.964583,228.171176 C591.614583,228.171176 578.664583,245.047059 578.664583,264.851176 C578.979919,282.952825 587.238862,300.00085 601.25,311.471765 L569.877083,342.295294 C549.78127,319.741263 538.959718,290.425008 539.583333,260.227647 C539.583333,193.263529 573.654167,175.462941 635.629167,175.462941 L730.210417,175.462941 L730.210417,228.094118 L706.854167,228.094118 Z" transform="translate(268 125)"/>
    <text fill="#000" font-family="Triomphe-Bold, Triomphe" font-size="416" font-weight="bold">
      <tspan x="0" y="477">R</tspan>
    </text>
    <text fill="#000" font-family="Triomphe-Bold, Triomphe" font-size="416" font-weight="bold">
      <tspan x="1006" y="516">t</tspan>
    </text>
  </g>
</svg>
