<?xml version="1.0" standalone="no"?>
<!DOCTYPE svg PUBLIC "-//W3C//DTD SVG 20010904//EN"
 "http://www.w3.org/TR/2001/REC-SVG-20010904/DTD/svg10.dtd">
<svg version="1.0" xmlns="http://www.w3.org/2000/svg"
 width="608.000000pt" height="608.000000pt" viewBox="0 0 608.000000 608.000000"
 preserveAspectRatio="xMidYMid meet">
<metadata>
Created by potrace 1.11, written by Peter Selinger 2001-2013
</metadata>
<g transform="translate(0.000000,608.000000) scale(0.100000,-0.100000)"
fill="#000000" stroke="none">
<path d="M2970 6066 c-53 -24 -80 -50 -105 -100 -46 -95 -20 -195 66 -250 17
-10 26 -25 25 -39 -1 -12 1 -33 5 -47 3 -14 3 -34 -1 -45 -4 -11 -4 -25 1 -30
14 -19 -6 -35 -48 -39 -96 -9 -187 -83 -218 -177 -11 -32 -22 -49 -33 -50 -9
0 -26 -2 -37 -5 -11 -2 -31 -6 -45 -8 -93 -16 -254 -62 -385 -111 -106 -40
-349 -157 -376 -181 -8 -8 -19 -14 -23 -14 -7 0 -179 -114 -203 -135 -6 -5
-26 -21 -44 -35 -32 -24 -80 -65 -148 -125 -190 -169 -403 -445 -526 -680 -26
-49 -50 -94 -54 -100 -15 -20 -126 -301 -136 -345 -2 -8 -11 -40 -20 -70 -9
-30 -18 -63 -20 -73 -2 -10 -6 -26 -9 -35 -5 -16 -9 -37 -21 -99 -3 -16 -8
-39 -10 -53 -11 -53 -13 -69 -20 -121 -13 -98 -14 -113 -19 -229 -3 -63 -5
-123 -6 -133 0 -13 -7 -17 -27 -15 -50 3 -100 -20 -117 -55 -16 -34 -16 -40
-16 -119 1 -29 -4 -48 -10 -48 -6 0 -9 -4 -6 -9 3 -5 -1 -11 -9 -15 -19 -7
-103 -121 -121 -165 -51 -122 -66 -268 -38 -375 21 -80 81 -192 131 -245 46
-49 49 -57 57 -137 2 -28 10 -61 18 -73 12 -20 72 -44 101 -40 33 4 36 -2 37
-63 0 -35 2 -74 3 -88 2 -14 0 -40 -4 -58 -4 -17 -3 -48 1 -67 4 -19 4 -37 0
-40 -4 -3 -5 -20 -1 -37 4 -18 6 -42 5 -53 -4 -38 -6 -90 -5 -185 0 -92 0
-106 2 -132 0 -14 0 -87 -1 -208 -1 -41 -1 -79 -1 -85 0 -5 2 -41 3 -79 l3
-69 43 -1 c23 0 42 1 42 4 0 3 30 3 66 0 36 -3 67 -3 70 1 4 8 44 0 44 -9 0
-3 -34 -62 -76 -131 -42 -69 -79 -129 -81 -133 -2 -5 1064 -8 2369 -7 1305 0
2367 3 2361 6 -7 2 -13 9 -13 14 0 5 -11 21 -25 36 -14 16 -58 71 -99 123
l-74 95 41 5 c23 3 61 2 85 -1 23 -3 42 -2 42 3 0 5 9 4 20 -2 12 -6 20 -7 20
-1 0 6 11 6 28 2 15 -4 39 -4 54 0 15 4 29 5 32 2 3 -3 5 18 4 45 0 28 2 55 5
59 3 5 2 26 -3 46 -4 20 -4 39 0 42 4 3 5 20 1 37 -7 33 -5 92 4 115 2 7 0 15
-4 18 -5 3 -5 21 -1 40 4 19 4 51 0 70 -4 19 -4 37 0 40 4 3 5 20 1 37 -4 18
-6 44 -4 58 1 14 2 66 2 115 0 50 0 110 1 135 1 25 2 52 2 60 -1 8 -2 49 -2
92 -1 42 1 81 4 87 4 6 3 11 -2 11 -5 0 -7 12 -4 26 3 16 9 23 18 20 8 -3 14
-1 14 3 0 5 9 7 20 4 29 -8 76 15 96 45 11 17 17 48 18 96 1 67 3 73 38 111
59 62 115 179 134 275 7 34 7 170 1 200 -17 78 -71 202 -102 236 -68 75 -67
73 -70 159 -2 57 -9 91 -20 109 -18 27 -76 52 -112 47 -11 -1 -24 2 -27 8 -4
5 -9 65 -12 133 -3 68 -7 139 -9 158 -2 19 -7 59 -11 89 -3 29 -15 94 -25 145
-11 50 -21 100 -23 111 -4 18 -12 49 -20 80 -97 363 -313 764 -559 1039 -231
257 -473 441 -772 589 -173 86 -432 174 -590 201 -56 9 -71 17 -72 38 -3 37
-41 104 -77 136 -50 44 -88 62 -143 67 -27 3 -57 6 -68 8 -23 4 -35 41 -25 77
4 14 3 38 -1 53 -6 24 -3 32 19 50 79 66 105 115 98 186 -3 26 -9 58 -15 71
-13 34 -55 80 -88 97 -36 19 -131 24 -163 9z"/>
</g>
</svg>
